<svg width="1000" height="1000" viewBox="0 0 1000 1000" fill="none" xmlns="http://www.w3.org/2000/svg">
<rect width="1000" height="1000" fill="white"/>
<path d="M521.587 845.038C513.78 845.038 506.562 842.084 501.253 836.733C497.055 832.51 492.052 824.695 492.052 811.446H506.131C506.131 832.17 522.98 833.979 530.322 828.163C532.38 826.512 533.45 824.405 533.45 821.9C533.45 816.963 532.206 814.524 531.459 813.504C530.845 812.658 530.256 812.359 529.949 812.359C529.103 812.359 527.485 814.176 527.485 818.382H513.407C513.407 805.183 521.719 798.272 529.949 798.272C534.927 798.272 539.639 800.811 542.85 805.216C545.911 809.414 547.529 815.188 547.529 821.9C547.529 834.875 536.13 845.038 521.587 845.038Z" fill="#FFD233"/>
<path d="M476.588 845.038C470.092 845.038 463.887 842.956 459.125 839.197C453.649 834.875 450.654 828.728 450.654 821.9C450.654 815.188 452.272 809.414 455.333 805.216C458.561 800.811 463.256 798.272 468.251 798.272C476.464 798.272 484.793 805.183 484.793 818.382H470.714C470.714 814.176 469.08 812.359 468.251 812.359C467.91 812.359 467.33 812.658 466.707 813.504C465.977 814.525 464.733 816.964 464.733 821.9C464.733 827.782 470.839 830.959 476.596 830.959C480.612 830.959 484.279 829.483 486.95 826.82C490.285 823.451 492.052 818.133 492.052 811.447H506.131C506.122 834.527 490.816 845.038 476.588 845.038Z" fill="#FFD233"/>
<path d="M424.945 350.187L414.981 340.24C430.13 325.1 424.447 305.852 412.077 293.499C397.692 279.122 383.837 282.789 376.329 290.28C370.671 295.947 367.56 305.014 374.106 311.56C378.171 315.642 382.418 317.301 385.803 316.09C388.201 315.227 390.001 312.946 390.242 310.399C390.549 307.321 388.607 304.359 384.766 302.061L392.009 289.982C400.512 295.084 405.083 303.239 404.262 311.776C403.466 319.757 398.09 326.643 390.557 329.347C381.887 332.433 372.264 329.604 364.142 321.516C353.042 310.407 354.012 292.695 366.382 280.325C379 267.707 401.806 263.31 422.041 283.544C431.241 292.744 436.916 304.094 438.019 315.484C439.255 328.393 434.734 340.398 424.945 350.187Z" fill="#FFD233"/>
<path d="M587.89 351.855C578.1 342.065 573.579 330.061 574.815 317.144C575.918 305.753 581.585 294.412 590.793 285.203C611.028 264.977 633.842 269.358 646.452 281.984C658.83 294.354 659.784 312.066 648.676 323.183C640.603 331.264 630.963 334.084 622.294 331.006C614.744 328.302 609.36 321.416 608.572 313.443C607.742 304.907 612.297 296.752 620.809 291.649L628.051 303.72C624.227 306.01 622.302 308.98 622.593 312.05C622.85 314.605 624.633 316.886 627.031 317.749C630.383 318.969 634.663 317.293 638.729 313.219C645.274 306.682 642.163 297.598 636.505 291.948C629.005 284.448 615.151 280.781 600.74 295.167C588.396 307.512 582.705 326.759 597.853 341.899L587.89 351.855Z" fill="#FFD233"/>
<path d="M582.431 813.371C572.774 813.371 562.205 809.381 552.258 799.433C543.074 790.233 537.383 778.884 536.279 767.493C535.051 754.576 539.564 742.58 549.37 732.79L559.318 742.737C544.185 757.87 549.868 777.125 562.221 789.47C576.59 803.83 590.461 800.188 597.969 792.689C603.644 787.039 606.738 777.955 600.193 771.417C596.128 767.344 591.83 765.676 588.512 766.888C586.098 767.75 584.314 770.032 584.057 772.579C583.766 775.657 585.708 778.627 589.532 780.916L582.29 792.987C573.786 787.893 569.215 779.73 570.053 771.202C570.849 763.229 576.225 756.335 583.758 753.639C592.444 750.561 602.068 753.381 610.157 761.462C621.257 772.57 620.319 790.283 607.933 802.652C601.495 809.09 592.444 813.371 582.431 813.371Z" fill="#FFD233"/>
<path d="M414.06 813.371C404.046 813.371 394.987 809.082 388.574 802.652C376.196 790.283 375.242 772.57 386.334 761.462C394.439 753.373 404.063 750.561 412.733 753.639C420.265 756.335 425.666 763.229 426.438 771.202C427.284 779.73 422.713 787.893 414.201 792.987L406.958 780.916C410.8 778.627 412.724 775.657 412.417 772.579C412.177 770.032 410.393 767.75 407.995 766.888C404.644 765.676 400.363 767.344 396.281 771.417C389.752 777.955 392.847 787.047 398.521 792.689C406.004 800.188 419.892 803.839 434.269 789.47C446.631 777.125 452.305 757.87 437.19 742.737L447.137 732.79C456.926 742.58 461.448 754.576 460.195 767.493C459.108 778.884 453.442 790.225 444.217 799.433C434.278 809.381 423.717 813.371 414.06 813.371Z" fill="#FFD233"/>
<path d="M285.046 482.105L275.082 472.149C288.937 458.303 283.702 440.665 272.395 429.349C264.845 421.825 256.74 418.929 248.933 421.037C242.238 422.829 236.621 428.229 234.929 434.476C234.149 437.421 233.975 441.735 237.717 445.477C241.375 449.119 245.142 450.604 248.103 449.575C250.161 448.82 251.704 446.871 251.911 444.681C252.185 442.018 250.451 439.421 247.05 437.388L254.309 425.317C262.398 430.162 266.72 437.928 265.923 446.074C265.177 453.674 260.025 460.253 252.849 462.824C244.569 465.794 235.427 463.082 227.769 455.424C221.257 448.903 218.909 439.935 221.323 430.834C224.318 419.717 233.701 410.534 245.274 407.423C252.683 405.448 267.309 404.37 282.35 419.386C301.589 438.641 302.692 464.442 285.046 482.105Z" fill="#FFD233"/>
<path d="M713.51 482.097C695.848 464.434 696.984 438.641 716.231 419.369C731.272 404.337 745.899 405.44 753.29 407.414C764.864 410.526 774.255 419.701 777.242 430.818C779.689 439.919 777.324 448.887 770.795 455.408C763.13 463.074 754.012 465.761 745.716 462.816C738.54 460.244 733.388 453.666 732.641 446.058C731.828 437.919 736.192 430.163 744.273 425.301L751.499 437.372C748.114 439.421 746.396 442.018 746.654 444.681C746.878 446.863 748.404 448.812 750.461 449.559C753.407 450.596 757.19 449.103 760.848 445.461C764.59 441.719 764.432 437.413 763.636 434.468C761.968 428.213 756.327 422.812 749.648 421.02C741.858 418.921 733.736 421.808 726.187 429.333C714.879 440.657 709.628 458.295 723.466 472.15L713.51 482.097Z" fill="#FFD233"/>
<path d="M644.229 264.256C640.131 264.256 636.082 262.887 632.855 260.224C627.197 255.586 625.048 247.937 627.089 239.74L640.745 243.15C640.322 244.801 639.915 247.821 641.765 249.339C642.918 250.268 644.636 250.434 646.046 249.77C648.311 248.7 649.597 245.672 649.597 241.449C649.597 234.223 642.163 231.602 637.169 231.602C629.064 231.602 620.386 236.978 620.386 252.077H606.307C606.307 228.341 622.319 217.523 637.177 217.523C652.293 217.523 663.684 227.811 663.684 241.449C663.684 251.33 659.453 259.012 652.086 262.497C649.572 263.675 646.9 264.256 644.229 264.256Z" fill="#FFD233"/>
<path d="M373.367 264.256C370.712 264.256 368.016 263.683 365.527 262.497C358.169 259.012 353.929 251.33 353.929 241.449C353.929 227.811 365.336 217.523 380.452 217.523C395.311 217.523 411.322 228.341 411.322 252.077H397.227C397.227 236.986 388.574 231.602 380.46 231.602C375.45 231.602 368.016 234.215 368.016 241.449C368.016 245.672 369.31 248.7 371.567 249.77C372.994 250.434 374.711 250.277 375.848 249.339C377.731 247.813 377.291 244.801 376.868 243.15L390.524 239.74C392.565 247.929 390.424 255.586 384.774 260.224C381.522 262.878 377.465 264.256 373.367 264.256Z" fill="#FFD233"/>
<path d="M506.123 778.154H492.044V813.354H506.123V778.154Z" fill="#FFD233"/>
<path d="M687.391 672.491L631.067 616.175L621.107 626.137L677.43 682.453L687.391 672.491Z" fill="#FFD233"/>
<path d="M652.409 707.342L604.172 659.186L594.213 669.161L642.451 717.317L652.409 707.342Z" fill="#FFD233"/>
<path d="M324.453 399.4L236.323 311.262L234.249 306.284V271.291L241.292 264.264H276.211L281.188 266.321L373.483 358.616L363.52 368.572L273.299 278.342H248.327V303.372L334.4 389.453L324.453 399.4Z" fill="#FFD233"/>
<path d="M767.228 804.262H732.26L727.282 802.196L663.733 738.631L673.689 728.683L735.196 790.183H760.176V765.187L698.685 703.687L708.649 693.723L772.206 757.289L774.263 762.266V797.226L767.228 804.262Z" fill="#FFD233"/>
<path d="M338.564 358.61L246.271 266.317L236.316 276.272L328.609 368.565L338.564 358.61Z" fill="#FFD233"/>
<path d="M669.848 689.885L618.466 638.503L608.511 648.458L659.893 699.84L669.848 689.885Z" fill="#FFD233"/>
<path d="M648.344 760.973H638.38L621.738 744.314V734.367L704.36 651.737H714.323L730.982 668.395V678.351L648.344 760.973ZM636.663 739.336L643.374 746.048L716.049 673.365L709.337 666.662L636.663 739.336Z" fill="#FFD233"/>
<path d="M726.119 721.23L716.169 711.281L681.207 746.244L691.156 756.193L726.119 721.23Z" fill="#FFD233"/>
<path d="M747.318 738.844L737.367 728.885L702.39 763.833L712.341 773.792L747.318 738.844Z" fill="#FFD233"/>
<path d="M765.195 760.18L755.244 750.22L720.279 785.156L730.229 795.116L765.195 760.18Z" fill="#FFD233"/>
<path d="M675.63 397.218L665.683 387.263L749.632 303.372V278.342H724.594L634.373 368.572L624.426 358.616L716.704 266.321L721.682 264.264H756.675L763.71 271.291V306.284L761.653 311.262L675.63 397.218Z" fill="#FFD233"/>
<path d="M378.34 624.614L368.389 614.655L310.577 672.418L320.528 682.377L378.34 624.614Z" fill="#FFD233"/>
<path d="M404.949 667.881L395 657.932L345.571 707.361L355.521 717.31L404.949 667.881Z" fill="#FFD233"/>
<path d="M265.683 804.262H230.731L223.696 797.226V762.266L225.753 757.289L289.31 693.723L299.274 703.687L237.783 765.187V790.183H262.763L324.27 728.683L334.226 738.631L270.652 802.196L265.683 804.262Z" fill="#FFD233"/>
<path d="M761.655 276.242L751.69 266.285L659.424 358.629L669.389 368.586L761.655 276.242Z" fill="#FFD233"/>
<path d="M390.821 647.11L380.856 637.154L328.147 689.907L338.112 699.864L390.821 647.11Z" fill="#FFD233"/>
<path d="M349.632 760.973L266.994 678.351V668.395L283.652 651.737H293.616L376.221 734.367V744.314L359.579 760.973H349.632ZM281.918 673.365L354.61 746.048L361.305 739.336L288.647 666.662L281.918 673.365Z" fill="#FFD233"/>
<path d="M316.755 746.233L281.804 711.282L271.843 721.243L306.794 756.194L316.755 746.233Z" fill="#FFD233"/>
<path d="M295.564 763.846L260.597 728.888L250.643 738.845L285.611 773.803L295.564 763.846Z" fill="#FFD233"/>
<path d="M277.649 785.173L242.697 750.211L232.747 760.159L267.699 795.121L277.649 785.173Z" fill="#FFD233"/>
<path d="M269.831 531.766C251.488 531.766 236.58 516.858 236.58 498.523C236.58 480.188 251.488 465.264 269.831 465.264C288.157 465.264 303.082 480.188 303.082 498.523C303.082 516.858 288.157 531.766 269.831 531.766ZM269.831 479.342C259.27 479.342 250.642 487.945 250.642 498.523C250.642 509.084 259.262 517.687 269.831 517.687C280.4 517.687 289.003 509.092 289.003 498.523C288.995 487.954 280.392 479.342 269.831 479.342Z" fill="#FFD233"/>
<path d="M269.831 531.766C252.816 531.766 204.665 507.557 199.214 504.803L186.836 498.523L199.214 492.243C204.656 489.48 252.816 465.264 269.831 465.264V479.342C261.568 479.342 237.567 489.447 218.42 498.523C237.575 507.591 261.568 517.687 269.831 517.687V531.766Z" fill="#FFD233"/>
<path d="M217.416 606.796C203.287 606.796 189.997 601.287 180 591.29V581.335L244.859 516.476H254.823C264.803 526.472 270.312 539.763 270.312 553.891C270.312 568.02 264.803 581.31 254.823 591.299C244.826 601.287 231.544 606.796 217.416 606.796ZM195.389 585.856C201.802 590.303 209.418 592.701 217.407 592.701C227.778 592.701 237.517 588.669 244.859 581.327C252.202 573.993 256.234 564.245 256.234 553.875C256.234 545.894 253.853 538.278 249.397 531.848L195.389 585.856Z" fill="#FFD233"/>
<path d="M242.462 620.219C221.025 620.219 200.865 611.874 185.699 596.7L195.663 586.753C208.157 599.255 224.783 606.141 242.462 606.141C260.141 606.141 276.767 599.255 289.277 586.753C315.07 560.952 315.07 518.948 289.277 493.147L299.224 483.192C330.509 514.493 330.509 565.415 299.224 596.708C284.075 611.874 263.916 620.219 242.462 620.219Z" fill="#FFD233"/>
<path d="M253.935 616.461H239.873V642.66H253.935V616.461Z" fill="#FFD233"/>
<path d="M730.169 531.766C711.826 531.766 696.918 516.849 696.918 498.515C696.918 480.18 711.826 465.264 730.169 465.264C748.512 465.264 763.42 480.18 763.42 498.515C763.42 516.849 748.512 531.766 730.169 531.766ZM730.169 479.342C719.608 479.342 710.997 487.937 710.997 498.515C710.997 509.076 719.6 517.679 730.169 517.679C740.738 517.679 749.358 509.084 749.358 498.515C749.358 487.945 740.738 479.342 730.169 479.342Z" fill="#FFD233"/>
<path d="M730.169 531.766V517.679C738.465 517.679 762.449 507.582 781.597 498.515C762.441 489.439 738.465 479.342 730.169 479.342V465.264C747.201 465.264 795.352 489.472 800.803 492.234L813.147 498.515L800.803 504.795C795.36 507.558 747.201 531.766 730.169 531.766Z" fill="#FFD233"/>
<path d="M782.593 606.796C768.464 606.796 755.174 601.296 745.193 591.299C724.553 570.675 724.553 537.108 745.193 516.468H755.141L820 581.335V591.291C810.003 601.296 796.738 606.796 782.593 606.796ZM750.603 531.857C740.199 546.981 741.709 567.904 755.141 581.344C762.483 588.686 772.239 592.709 782.593 592.709C790.582 592.709 798.198 590.32 804.611 585.873L750.603 531.857Z" fill="#FFD233"/>
<path d="M757.538 620.186C736.972 620.186 716.431 612.371 700.776 596.708C669.491 565.415 669.491 514.485 700.776 483.183L710.723 493.13C684.93 518.94 684.93 560.943 710.723 586.744C736.532 612.562 778.536 612.562 804.345 586.744L814.292 596.7C798.646 612.371 778.096 620.186 757.538 620.186Z" fill="#FFD233"/>
<path d="M760.143 616.461H746.048V642.669H760.143V616.461Z" fill="#FFD233"/>
<path d="M509.574 277.339C489.381 277.339 472.954 260.921 472.954 240.736C472.954 220.535 489.381 204.108 509.574 204.108C529.767 204.108 546.193 220.535 546.193 240.736C546.193 260.912 529.767 277.339 509.574 277.339ZM509.574 218.187C497.163 218.187 487.033 228.3 487.033 240.736C487.033 253.164 497.163 263.26 509.574 263.26C522.018 263.26 532.131 253.164 532.131 240.736C532.131 228.3 522.018 218.187 509.574 218.187Z" fill="#FFD233"/>
<path d="M520.591 324.096H506.513C506.513 319.848 504.472 316.754 501.12 312.058C497.536 307.047 493.064 300.808 493.064 291.824C493.064 275.323 504.521 265.375 505.019 264.952L514.145 275.663C513.904 275.878 507.143 281.968 507.143 291.824C507.143 296.088 509.217 299.182 512.552 303.878C516.136 308.889 520.591 315.119 520.591 324.096Z" fill="#FFD233"/>
<path d="M512.544 211.143H498.465C498.465 202.159 502.92 195.928 506.504 190.909C509.839 186.222 511.913 183.127 511.913 178.871C511.913 168.957 504.978 162.768 504.911 162.702L514.054 152C514.543 152.415 525.992 162.362 525.992 178.871C525.992 187.848 521.537 194.086 517.936 199.097C514.601 203.801 512.544 206.887 512.544 211.143Z" fill="#FFD233"/>
<path d="M424.107 249.746V235.667C428.371 235.667 431.449 233.618 436.144 230.258C441.164 226.674 447.386 222.227 456.379 222.227C472.888 222.227 482.835 233.684 483.258 234.174L472.548 243.3C472.324 243.067 466.243 236.298 456.379 236.298C452.131 236.298 449.037 238.355 444.324 241.707C439.338 245.291 433.083 249.746 424.107 249.746Z" fill="#FFD233"/>
<path d="M569.331 255.13C560.355 255.13 554.116 250.675 549.097 247.091C544.418 243.739 541.315 241.682 537.059 241.682V227.603C546.035 227.603 552.274 232.066 557.293 235.65C561.989 239.002 565.075 241.051 569.331 241.051C579.245 241.051 585.434 234.124 585.484 234.057L596.194 243.183C595.796 243.673 585.849 255.13 569.331 255.13Z" fill="#FFD233"/>
<path d="M467.446 299.489L457.482 289.534C459.556 287.468 460.062 284.921 460.784 280.582C461.614 275.571 462.667 269.349 467.993 263.99C477.717 254.292 490.318 255.171 490.858 255.204L489.754 269.233C489.547 269.241 482.985 268.91 477.941 273.937C475.9 275.986 475.377 278.55 474.664 282.88C473.834 287.9 472.813 294.13 467.446 299.489Z" fill="#FFD233"/>
<path d="M529.261 225.139L519.297 215.192C524.656 209.833 530.878 208.796 535.889 207.958C540.228 207.236 542.792 206.73 544.849 204.672C549.86 199.661 549.545 192.95 549.545 192.883L563.59 191.755C563.623 192.286 564.511 204.913 554.805 214.619C549.445 219.979 543.206 221.016 538.196 221.854C533.882 222.567 531.318 223.082 529.261 225.139Z" fill="#FFD233"/>
<path d="M496.383 220.717L482.354 219.606C482.371 219.407 482.678 212.836 477.675 207.825C475.617 205.768 473.054 205.245 468.715 204.531C463.696 203.685 457.474 202.648 452.106 197.297L462.07 187.342C464.127 189.408 466.691 189.922 471.013 190.644C476.032 191.482 482.271 192.519 487.639 197.878C497.329 207.576 496.433 220.186 496.383 220.717Z" fill="#FFD233"/>
<path d="M555.9 296.162C552.415 296.162 542.352 295.399 534.288 287.344C528.954 281.984 527.9 275.754 527.062 270.735C526.349 266.412 525.851 263.849 523.777 261.783L533.757 251.844C539.092 257.195 540.129 263.426 540.95 268.437C541.68 272.767 542.194 275.331 544.252 277.388C549.246 282.391 555.966 282.067 556.032 282.084L557.152 296.121C557.053 296.138 556.63 296.162 555.9 296.162Z" fill="#FFD233"/>
<path d="M504.521 744.397H499.253C296.03 662.389 325.598 363.503 325.921 360.491L332.923 354.203H670.843L677.829 360.491C678.16 363.503 707.728 662.389 504.521 744.397ZM339.428 368.281C336.466 410.924 327.274 657.295 501.883 730.252C676.509 657.295 667.317 410.924 664.356 368.281H339.428V368.281Z" fill="#FFD233"/>
<path d="M418.792 447.052C418.792 439.261 420.881 433.257 425.059 429.039C428.691 425.366 433.313 423.529 438.924 423.529C446.432 423.529 451.921 425.992 455.393 430.916C457.31 433.681 458.339 436.456 458.48 439.241H449.156C448.551 437.102 447.774 435.487 446.825 434.397C445.13 432.46 442.617 431.491 439.287 431.491C435.896 431.491 433.222 432.864 431.265 435.608C429.307 438.333 428.328 442.198 428.328 447.203C428.328 452.208 429.357 455.962 431.416 458.465C433.495 460.947 436.129 462.188 439.317 462.188C442.587 462.188 445.079 461.119 446.795 458.979C447.743 457.829 448.531 456.104 449.156 453.803H458.39C457.582 458.667 455.514 462.622 452.184 465.67C448.874 468.717 444.625 470.241 439.438 470.241C433.021 470.241 427.975 468.183 424.302 464.065C420.629 459.928 418.792 454.257 418.792 447.052ZM473.647 469H465.02V424.377H473.647V469ZM495.111 442.238C493.113 442.238 491.559 442.864 490.449 444.115C489.359 445.367 488.673 447.062 488.391 449.201H501.802C501.66 446.921 500.964 445.195 499.713 444.024C498.482 442.834 496.948 442.238 495.111 442.238ZM495.111 435.124C497.856 435.124 500.328 435.639 502.528 436.668C504.728 437.697 506.545 439.322 507.978 441.542C509.269 443.5 510.107 445.77 510.49 448.354C510.712 449.867 510.803 452.047 510.763 454.893H488.179C488.3 458.202 489.339 460.523 491.297 461.855C492.488 462.683 493.921 463.097 495.596 463.097C497.372 463.097 498.815 462.592 499.925 461.583C500.53 461.038 501.065 460.281 501.529 459.312H510.339C510.117 461.27 509.098 463.258 507.281 465.276C504.456 468.485 500.5 470.09 495.414 470.09C491.216 470.09 487.513 468.738 484.304 466.033C481.095 463.329 479.49 458.929 479.49 452.834C479.49 447.122 480.933 442.743 483.819 439.695C486.726 436.648 490.49 435.124 495.111 435.124ZM534.8 452.955C534.255 453.298 533.7 453.581 533.135 453.803C532.59 454.005 531.833 454.196 530.864 454.378L528.927 454.741C527.11 455.064 525.809 455.458 525.021 455.922C523.689 456.709 523.023 457.93 523.023 459.585C523.023 461.058 523.427 462.128 524.234 462.794C525.062 463.44 526.061 463.763 527.231 463.763C529.088 463.763 530.794 463.218 532.348 462.128C533.922 461.038 534.739 459.05 534.8 456.164V452.955ZM529.562 448.929C531.157 448.727 532.297 448.475 532.983 448.172C534.215 447.647 534.83 446.83 534.83 445.72C534.83 444.368 534.356 443.439 533.407 442.935C532.479 442.41 531.106 442.147 529.29 442.147C527.252 442.147 525.809 442.652 524.961 443.661C524.355 444.408 523.952 445.417 523.75 446.688H515.425C515.606 443.802 516.414 441.431 517.847 439.574C520.127 436.668 524.043 435.215 529.593 435.215C533.205 435.215 536.414 435.931 539.22 437.364C542.025 438.797 543.428 441.502 543.428 445.478V460.614C543.428 461.664 543.448 462.935 543.488 464.429C543.549 465.559 543.72 466.326 544.003 466.729C544.285 467.133 544.709 467.466 545.274 467.729V469H535.89C535.627 468.334 535.446 467.708 535.345 467.123C535.244 466.538 535.163 465.872 535.103 465.125C533.912 466.417 532.539 467.517 530.985 468.425C529.129 469.494 527.03 470.029 524.688 470.029C521.701 470.029 519.229 469.182 517.271 467.486C515.334 465.771 514.365 463.349 514.365 460.221C514.365 456.164 515.929 453.228 519.058 451.411C520.773 450.422 523.296 449.716 526.626 449.292L529.562 448.929ZM569.402 435.215C572.813 435.215 575.598 436.113 577.758 437.909C579.938 439.685 581.027 442.642 581.027 446.779V469H572.188V448.929C572.188 447.193 571.955 445.861 571.491 444.933C570.644 443.237 569.029 442.39 566.647 442.39C563.721 442.39 561.713 443.631 560.623 446.113C560.058 447.425 559.775 449.1 559.775 451.139V469H551.178V436.062H559.503V440.876C560.613 439.181 561.662 437.96 562.651 437.213C564.427 435.881 566.678 435.215 569.402 435.215ZM380.89 518.052C380.89 510.261 382.979 504.257 387.156 500.039C390.789 496.366 395.411 494.529 401.021 494.529C408.529 494.529 414.019 496.992 417.49 501.916C419.408 504.681 420.437 507.456 420.578 510.241H411.254C410.648 508.102 409.871 506.487 408.923 505.397C407.228 503.46 404.715 502.491 401.385 502.491C397.994 502.491 395.32 503.864 393.362 506.608C391.405 509.333 390.426 513.198 390.426 518.203C390.426 523.208 391.455 526.962 393.514 529.465C395.592 531.947 398.226 533.188 401.415 533.188C404.685 533.188 407.177 532.119 408.893 529.979C409.841 528.829 410.628 527.104 411.254 524.803H420.487C419.68 529.667 417.611 533.622 414.281 536.67C410.971 539.717 406.723 541.241 401.536 541.241C395.118 541.241 390.073 539.183 386.399 535.065C382.726 530.928 380.89 525.257 380.89 518.052ZM445.13 523.955C444.585 524.298 444.03 524.581 443.465 524.803C442.92 525.005 442.163 525.196 441.194 525.378L439.257 525.741C437.44 526.064 436.139 526.458 435.352 526.922C434.02 527.709 433.354 528.93 433.354 530.585C433.354 532.058 433.757 533.128 434.564 533.794C435.392 534.44 436.391 534.763 437.562 534.763C439.418 534.763 441.124 534.218 442.678 533.128C444.252 532.038 445.069 530.05 445.13 527.164V523.955ZM439.893 519.929C441.487 519.727 442.627 519.475 443.313 519.172C444.545 518.647 445.16 517.83 445.16 516.72C445.16 515.368 444.686 514.439 443.737 513.935C442.809 513.41 441.437 513.147 439.62 513.147C437.582 513.147 436.139 513.652 435.291 514.661C434.686 515.408 434.282 516.417 434.08 517.688H425.755C425.937 514.802 426.744 512.431 428.177 510.574C430.457 507.668 434.373 506.215 439.923 506.215C443.535 506.215 446.744 506.931 449.55 508.364C452.355 509.797 453.758 512.502 453.758 516.478V531.614C453.758 532.664 453.778 533.935 453.818 535.429C453.879 536.559 454.05 537.326 454.333 537.729C454.616 538.133 455.039 538.466 455.604 538.729V540H446.22C445.957 539.334 445.776 538.708 445.675 538.123C445.574 537.538 445.493 536.872 445.433 536.125C444.242 537.417 442.869 538.517 441.315 539.425C439.459 540.494 437.36 541.029 435.019 541.029C432.032 541.029 429.559 540.182 427.602 538.486C425.664 536.771 424.695 534.349 424.695 531.221C424.695 527.164 426.259 524.228 429.388 522.411C431.103 521.422 433.626 520.716 436.956 520.292L439.893 519.929ZM498.32 506.275C499.773 506.275 501.206 506.558 502.619 507.123C504.032 507.688 505.313 508.677 506.464 510.09C507.392 511.24 508.018 512.653 508.341 514.328C508.543 515.438 508.644 517.063 508.644 519.202L508.583 540H499.743V518.99C499.743 517.739 499.541 516.71 499.138 515.902C498.371 514.368 496.958 513.602 494.899 513.602C492.518 513.602 490.873 514.59 489.965 516.568C489.501 517.618 489.269 518.879 489.269 520.353V540H480.58V520.353C480.58 518.395 480.378 516.972 479.975 516.084C479.248 514.49 477.825 513.692 475.706 513.692C473.244 513.692 471.589 514.49 470.741 516.084C470.277 516.992 470.045 518.344 470.045 520.141V540H461.296V507.062H469.682V511.876C470.751 510.16 471.76 508.939 472.709 508.213C474.384 506.921 476.554 506.275 479.218 506.275C481.741 506.275 483.779 506.83 485.333 507.94C486.584 508.97 487.533 510.292 488.179 511.906C489.309 509.969 490.712 508.546 492.387 507.638C494.163 506.729 496.141 506.275 498.32 506.275ZM539.341 523.501C539.341 520.958 538.756 518.708 537.585 516.75C536.435 514.792 534.558 513.813 531.954 513.813C528.826 513.813 526.676 515.297 525.506 518.264C524.9 519.838 524.598 521.836 524.598 524.258C524.598 528.092 525.617 530.787 527.655 532.341C528.866 533.249 530.299 533.703 531.954 533.703C534.356 533.703 536.182 532.775 537.434 530.918C538.705 529.061 539.341 526.589 539.341 523.501ZM534.437 506.275C538.291 506.275 541.551 507.698 544.215 510.544C546.899 513.39 548.241 517.567 548.241 523.077C548.241 528.89 546.929 533.32 544.306 536.367C541.702 539.415 538.342 540.938 534.225 540.938C531.601 540.938 529.421 540.283 527.686 538.971C526.737 538.244 525.809 537.185 524.9 535.792V552.987H516.363V507.002H524.628V511.876C525.556 510.443 526.545 509.313 527.595 508.485C529.512 507.012 531.793 506.275 534.437 506.275ZM563.105 507.002V526.892C563.105 528.769 563.327 530.181 563.771 531.13C564.559 532.805 566.103 533.643 568.403 533.643C571.35 533.643 573.368 532.452 574.458 530.07C575.023 528.779 575.306 527.073 575.306 524.954V507.002H584.055V540H575.669V535.338C575.588 535.439 575.386 535.742 575.063 536.246C574.741 536.751 574.357 537.195 573.913 537.578C572.561 538.789 571.249 539.617 569.978 540.061C568.726 540.505 567.253 540.727 565.558 540.727C560.674 540.727 557.384 538.971 555.688 535.459C554.74 533.521 554.266 530.666 554.266 526.892V507.002H563.105ZM599.131 529.465C599.312 530.999 599.706 532.089 600.312 532.734C601.381 533.885 603.359 534.46 606.245 534.46C607.94 534.46 609.283 534.208 610.271 533.703C611.281 533.199 611.785 532.442 611.785 531.433C611.785 530.464 611.382 529.727 610.574 529.223C609.767 528.718 606.77 527.85 601.583 526.619C597.849 525.691 595.215 524.53 593.682 523.138C592.148 521.765 591.381 519.787 591.381 517.204C591.381 514.157 592.572 511.543 594.953 509.363C597.355 507.163 600.725 506.063 605.064 506.063C609.182 506.063 612.532 506.891 615.115 508.546C617.719 510.181 619.212 513.016 619.596 517.053H610.968C610.847 515.943 610.534 515.065 610.029 514.419C609.081 513.248 607.466 512.663 605.186 512.663C603.309 512.663 601.966 512.956 601.159 513.541C600.372 514.126 599.979 514.812 599.979 515.6C599.979 516.589 600.402 517.305 601.25 517.749C602.098 518.213 605.095 519.01 610.241 520.141C613.672 520.948 616.245 522.169 617.961 523.804C619.656 525.459 620.504 527.527 620.504 530.01C620.504 533.279 619.283 535.953 616.841 538.032C614.419 540.091 610.665 541.12 605.579 541.12C600.392 541.12 596.558 540.03 594.075 537.851C591.613 535.651 590.382 532.855 590.382 529.465H599.131ZM434.353 589.052C434.353 581.261 436.441 575.257 440.619 571.039C444.252 567.366 448.874 565.529 454.484 565.529C461.992 565.529 467.482 567.992 470.953 572.916C472.87 575.681 473.9 578.456 474.041 581.241H464.717C464.111 579.102 463.334 577.487 462.386 576.397C460.69 574.46 458.178 573.491 454.848 573.491C451.457 573.491 448.783 574.864 446.825 577.608C444.868 580.333 443.889 584.198 443.889 589.203C443.889 594.208 444.918 597.962 446.977 600.465C449.055 602.947 451.689 604.188 454.878 604.188C458.147 604.188 460.64 603.119 462.355 600.979C463.304 599.829 464.091 598.104 464.717 595.803H473.95C473.143 600.667 471.074 604.622 467.744 607.67C464.434 610.717 460.186 612.241 454.999 612.241C448.581 612.241 443.535 610.183 439.862 606.065C436.189 601.928 434.353 596.257 434.353 589.052ZM489.208 611H480.58V566.377H489.208V611ZM506.252 578.002V597.892C506.252 599.769 506.474 601.181 506.918 602.13C507.705 603.805 509.249 604.643 511.55 604.643C514.496 604.643 516.515 603.452 517.604 601.07C518.17 599.779 518.452 598.073 518.452 595.954V578.002H527.201V611H518.815V606.338C518.735 606.439 518.533 606.742 518.21 607.246C517.887 607.751 517.504 608.195 517.06 608.578C515.707 609.789 514.396 610.617 513.124 611.061C511.873 611.505 510.399 611.727 508.704 611.727C503.82 611.727 500.53 609.971 498.835 606.459C497.886 604.521 497.412 601.666 497.412 597.892V578.002H506.252ZM553.388 577.275C557.727 577.275 561.118 578.84 563.56 581.968C566.022 585.096 567.253 589.132 567.253 594.077C567.253 599.203 566.042 603.452 563.62 606.822C561.198 610.193 557.818 611.878 553.479 611.878C550.754 611.878 548.564 611.333 546.909 610.243C545.92 609.597 544.851 608.467 543.7 606.853V611H535.254V566.438H543.852V582.301C544.941 580.767 546.142 579.596 547.454 578.789C549.008 577.78 550.986 577.275 553.388 577.275ZM551.178 604.764C553.398 604.764 555.123 603.866 556.354 602.069C557.586 600.273 558.201 597.912 558.201 594.985C558.201 592.644 557.898 590.707 557.293 589.173C556.143 586.267 554.023 584.813 550.936 584.813C547.807 584.813 545.658 586.236 544.487 589.082C543.882 590.596 543.579 592.553 543.579 594.955C543.579 597.781 544.205 600.122 545.456 601.979C546.707 603.835 548.615 604.764 551.178 604.764Z" fill="black"/>
</svg>
